<mxfile host="Electron" agent="Mozilla/5.0 (Windows NT 10.0; Win64; x64) AppleWebKit/537.36 (KHTML, like Gecko) draw.io/24.7.8 Chrome/128.0.6613.36 Electron/32.0.1 Safari/537.36" version="24.7.8">
  <diagram name="Page-1" id="XYOYdbRh2mSrQ3KKm7Fb">
    <mxGraphModel dx="1036" dy="606" grid="1" gridSize="10" guides="1" tooltips="1" connect="1" arrows="1" fold="1" page="1" pageScale="1" pageWidth="850" pageHeight="1100" math="0" shadow="0">
      <root>
        <mxCell id="0" />
        <mxCell id="1" parent="0" />
        <mxCell id="SUVKRQy7DIxuWU4Z8lLP-3" style="edgeStyle=orthogonalEdgeStyle;rounded=0;orthogonalLoop=1;jettySize=auto;html=1;exitX=0.5;exitY=1;exitDx=0;exitDy=0;" edge="1" parent="1" source="SUVKRQy7DIxuWU4Z8lLP-1" target="SUVKRQy7DIxuWU4Z8lLP-2">
          <mxGeometry relative="1" as="geometry" />
        </mxCell>
        <mxCell id="SUVKRQy7DIxuWU4Z8lLP-1" value="Mulai" style="ellipse;whiteSpace=wrap;html=1;" vertex="1" parent="1">
          <mxGeometry x="340" y="30" width="120" height="80" as="geometry" />
        </mxCell>
        <mxCell id="SUVKRQy7DIxuWU4Z8lLP-5" style="edgeStyle=orthogonalEdgeStyle;rounded=0;orthogonalLoop=1;jettySize=auto;html=1;exitX=0.5;exitY=1;exitDx=0;exitDy=0;entryX=0.5;entryY=0;entryDx=0;entryDy=0;" edge="1" parent="1" source="SUVKRQy7DIxuWU4Z8lLP-2" target="SUVKRQy7DIxuWU4Z8lLP-4">
          <mxGeometry relative="1" as="geometry" />
        </mxCell>
        <mxCell id="SUVKRQy7DIxuWU4Z8lLP-2" value="Masukan Bilangan bulat" style="shape=parallelogram;perimeter=parallelogramPerimeter;whiteSpace=wrap;html=1;fixedSize=1;" vertex="1" parent="1">
          <mxGeometry x="300" y="160" width="200" height="60" as="geometry" />
        </mxCell>
        <mxCell id="SUVKRQy7DIxuWU4Z8lLP-7" style="edgeStyle=orthogonalEdgeStyle;rounded=0;orthogonalLoop=1;jettySize=auto;html=1;exitX=0.5;exitY=1;exitDx=0;exitDy=0;" edge="1" parent="1" source="SUVKRQy7DIxuWU4Z8lLP-4" target="SUVKRQy7DIxuWU4Z8lLP-6">
          <mxGeometry relative="1" as="geometry" />
        </mxCell>
        <mxCell id="SUVKRQy7DIxuWU4Z8lLP-4" value="Bilangan dibagi 2 dengan operasi sisa bagi" style="rounded=0;whiteSpace=wrap;html=1;" vertex="1" parent="1">
          <mxGeometry x="340" y="280" width="120" height="60" as="geometry" />
        </mxCell>
        <mxCell id="SUVKRQy7DIxuWU4Z8lLP-10" style="edgeStyle=orthogonalEdgeStyle;rounded=0;orthogonalLoop=1;jettySize=auto;html=1;exitX=1;exitY=0.5;exitDx=0;exitDy=0;entryX=0;entryY=0.5;entryDx=0;entryDy=0;" edge="1" parent="1" source="SUVKRQy7DIxuWU4Z8lLP-6" target="SUVKRQy7DIxuWU4Z8lLP-8">
          <mxGeometry relative="1" as="geometry" />
        </mxCell>
        <mxCell id="SUVKRQy7DIxuWU4Z8lLP-11" style="edgeStyle=orthogonalEdgeStyle;rounded=0;orthogonalLoop=1;jettySize=auto;html=1;exitX=0.5;exitY=1;exitDx=0;exitDy=0;entryX=0.5;entryY=0;entryDx=0;entryDy=0;" edge="1" parent="1" source="SUVKRQy7DIxuWU4Z8lLP-6" target="SUVKRQy7DIxuWU4Z8lLP-9">
          <mxGeometry relative="1" as="geometry" />
        </mxCell>
        <mxCell id="SUVKRQy7DIxuWU4Z8lLP-6" value="? sisa bagi = 0" style="rhombus;whiteSpace=wrap;html=1;" vertex="1" parent="1">
          <mxGeometry x="340" y="380" width="120" height="120" as="geometry" />
        </mxCell>
        <mxCell id="SUVKRQy7DIxuWU4Z8lLP-14" style="edgeStyle=orthogonalEdgeStyle;rounded=0;orthogonalLoop=1;jettySize=auto;html=1;exitX=0.5;exitY=1;exitDx=0;exitDy=0;entryX=1;entryY=0.5;entryDx=0;entryDy=0;" edge="1" parent="1" source="SUVKRQy7DIxuWU4Z8lLP-8" target="SUVKRQy7DIxuWU4Z8lLP-12">
          <mxGeometry relative="1" as="geometry">
            <mxPoint x="570" y="690" as="targetPoint" />
          </mxGeometry>
        </mxCell>
        <mxCell id="SUVKRQy7DIxuWU4Z8lLP-8" value="Genap" style="shape=parallelogram;perimeter=parallelogramPerimeter;whiteSpace=wrap;html=1;fixedSize=1;" vertex="1" parent="1">
          <mxGeometry x="510" y="410" width="120" height="60" as="geometry" />
        </mxCell>
        <mxCell id="SUVKRQy7DIxuWU4Z8lLP-13" style="edgeStyle=orthogonalEdgeStyle;rounded=0;orthogonalLoop=1;jettySize=auto;html=1;exitX=0.5;exitY=1;exitDx=0;exitDy=0;" edge="1" parent="1" source="SUVKRQy7DIxuWU4Z8lLP-9" target="SUVKRQy7DIxuWU4Z8lLP-12">
          <mxGeometry relative="1" as="geometry" />
        </mxCell>
        <mxCell id="SUVKRQy7DIxuWU4Z8lLP-9" value="Ganjil" style="shape=parallelogram;perimeter=parallelogramPerimeter;whiteSpace=wrap;html=1;fixedSize=1;" vertex="1" parent="1">
          <mxGeometry x="340" y="530" width="120" height="60" as="geometry" />
        </mxCell>
        <mxCell id="SUVKRQy7DIxuWU4Z8lLP-12" value="Selesai" style="ellipse;whiteSpace=wrap;html=1;" vertex="1" parent="1">
          <mxGeometry x="340" y="640" width="120" height="80" as="geometry" />
        </mxCell>
        <mxCell id="SUVKRQy7DIxuWU4Z8lLP-15" value="Ya" style="text;html=1;align=center;verticalAlign=middle;resizable=0;points=[];autosize=1;strokeColor=none;fillColor=none;" vertex="1" parent="1">
          <mxGeometry x="470" y="418" width="40" height="30" as="geometry" />
        </mxCell>
        <mxCell id="SUVKRQy7DIxuWU4Z8lLP-16" value="Tidak" style="text;html=1;align=center;verticalAlign=middle;resizable=0;points=[];autosize=1;strokeColor=none;fillColor=none;" vertex="1" parent="1">
          <mxGeometry x="390" y="498" width="50" height="30" as="geometry" />
        </mxCell>
      </root>
    </mxGraphModel>
  </diagram>
</mxfile>
